<svg width="509" height="93" viewBox="0 0 509 93" fill="none" xmlns="http://www.w3.org/2000/svg">
<path fill-rule="evenodd" clip-rule="evenodd" d="M13.1673 90.5452L13.1584 90.5425C8.38936 89.0875 4.49591 87.2708 1.5729 85.0356L0.231445 84.0098L6.76977 71.587L8.61989 72.8385C11.0953 74.513 14.2102 75.9703 18.0029 77.1839C21.734 78.3779 25.5332 78.9734 29.4076 78.9734C34.584 78.9734 37.8526 78.2198 39.6191 77.0625L39.632 77.054L39.645 77.0458C41.4529 75.9008 42.2488 74.4412 42.2488 72.4927C42.2488 71.0786 41.7755 70.1582 40.9007 69.4777C39.7806 68.6066 38.1881 67.879 36.0204 67.3732L36.0129 67.3715L36.0055 67.3697C33.8044 66.8384 31.3187 66.3785 28.5435 65.993L28.5167 65.9893L28.4899 65.9848C25.6274 65.5078 22.7655 64.9513 19.9042 64.3154L19.8785 64.3097L19.853 64.3033C16.8993 63.5649 14.1689 62.5746 11.6697 61.325L11.6461 61.3133L11.6229 61.3009C8.99022 59.8968 6.85171 57.9889 5.24624 55.5807L5.237 55.5669L5.22798 55.5528C3.54212 52.9304 2.79018 49.6095 2.79018 45.7551C2.79018 41.5839 3.97277 37.8579 6.37042 34.661C8.74853 31.4902 12.0569 29.1259 16.1892 27.5219C20.4026 25.8383 25.2955 25.027 30.8211 25.027C35.0657 25.027 39.341 25.5569 43.6439 26.6106C48.0402 27.5896 51.7425 29.0408 54.6745 31.0242L56.1731 32.038L49.4423 44.5147L47.6153 43.2967C44.9729 41.5351 42.2497 40.3426 39.4409 39.6944C36.5221 39.0208 33.6104 38.6855 30.7033 38.6855C25.9114 38.6855 22.6993 39.4964 20.753 40.8149L20.7344 40.8275L20.7156 40.8396C18.75 42.1077 17.9799 43.5638 17.9799 45.284C17.9799 46.8849 18.4785 47.9225 19.3372 48.658C20.5786 49.561 22.2065 50.32 24.2776 50.8921C26.5528 51.4985 29.0693 52.0333 31.8301 52.4941C34.7116 52.8953 37.591 53.4554 40.4682 54.1737C43.4273 54.8334 46.1327 55.7869 48.5714 57.0468C51.2143 58.3707 53.3596 60.2404 54.9687 62.6465C56.7596 65.2031 57.5563 68.4682 57.5563 72.2571C57.5563 76.4459 56.3232 80.1538 53.82 83.2828C51.3588 86.3594 47.942 88.7036 43.6833 90.3737L43.6673 90.3799L43.6513 90.3859C39.3667 91.9821 34.3279 92.7497 28.5831 92.7497C23.2163 92.7497 18.075 92.0175 13.1673 90.5452ZM53.3183 63.7765C51.9049 61.6563 50.0203 60.0073 47.6646 58.8294C45.3874 57.6516 42.8353 56.7485 40.0084 56.1203C37.1815 55.4136 34.3547 54.864 31.5278 54.4713C28.7009 54.0002 26.1096 53.4505 23.7539 52.8223C21.4766 52.1941 19.5921 51.3304 18.1001 50.231C16.6866 49.0531 15.9799 47.4041 15.9799 45.284C15.9799 42.7712 17.1971 40.7295 19.6313 39.159C22.0656 37.51 25.7562 36.6855 30.7033 36.6855C33.7657 36.6855 36.8282 37.0389 39.8906 37.7456C42.3432 38.3116 44.7203 39.2553 47.0218 40.5767C47.5941 40.9053 48.1617 41.2573 48.7247 41.6326L53.5539 32.6808C50.8841 30.8747 47.429 29.5005 43.1887 28.5582C39.0269 27.5374 34.9043 27.027 30.8211 27.027C25.4814 27.027 20.8484 27.8123 16.9222 29.3827C13.0745 30.8747 10.0906 33.0341 7.97042 35.861C5.85026 38.6879 4.79018 41.9859 4.79018 45.7551C4.79018 49.3672 5.4969 52.2726 6.91034 54.4713C8.32378 56.5915 10.2084 58.2798 12.5641 59.5362C14.9198 60.714 17.5112 61.6563 20.338 62.363C23.1649 62.9912 25.9918 63.5409 28.8187 64.0121C31.6456 64.4047 34.1976 64.8758 36.4748 65.4255C38.8306 65.9752 40.7151 66.7997 42.1286 67.899C43.542 68.9984 44.2488 70.5296 44.2488 72.4927C44.2488 75.1625 43.0709 77.2434 40.7151 78.7354C38.4379 80.2274 34.6688 80.9734 29.4076 80.9734C25.3243 80.9734 21.3196 80.3452 17.3934 79.0888C14.2626 78.0869 11.5313 76.9103 9.19941 75.559C8.60691 75.2156 8.0402 74.861 7.49927 74.4951L2.7878 83.4469C5.45764 85.4885 9.10903 87.2161 13.742 88.6295C18.4534 90.0429 23.4005 90.7497 28.5831 90.7497C34.1584 90.7497 38.9483 90.0037 42.9531 88.5117C46.9578 86.9412 50.0596 84.7818 52.2583 82.0334C54.4569 79.2851 55.5563 76.0263 55.5563 72.2571C55.5563 68.7235 54.8103 65.8967 53.3183 63.7765ZM79.4619 34.1887C80.9543 32.7463 82.6826 31.4977 84.6469 30.4428C88.8872 28.1656 93.8342 27.027 99.488 27.027C104.592 27.027 109.068 28.0086 112.916 29.9717C116.842 31.9348 119.904 34.9187 122.103 38.9235C124.302 42.9282 125.401 47.9931 125.401 54.118V90.0429H114.094V55.4136C114.094 49.3672 112.602 44.8128 109.618 41.7504C106.712 38.6879 102.59 37.1567 97.2501 37.1567C93.2453 37.1567 89.751 37.9419 86.767 39.5124C83.7831 41.0829 81.4666 43.3994 79.8176 46.4618C78.2471 49.5243 77.4619 53.3327 77.4619 57.8872V90.0429H66.1543V2.64514H77.4619V36.4177C78.0733 35.6294 78.74 34.8864 79.4619 34.1887ZM79.4619 31.5099C80.7441 30.4525 82.1579 29.5093 83.7006 28.6808C88.2788 26.2222 93.5618 25.027 99.488 25.027C104.848 25.027 109.643 26.0583 113.817 28.1865C118.119 30.3391 121.472 33.6178 123.856 37.961C126.263 42.3441 127.401 47.7667 127.401 54.118V92.0429H112.094V55.4136C112.094 49.6712 110.677 45.7039 108.185 43.1461L108.176 43.1365L108.167 43.1269C105.733 40.562 102.195 39.1567 97.2501 39.1567C93.5092 39.1567 90.3459 39.8889 87.6985 41.2822C85.0839 42.6584 83.0541 44.6774 81.5881 47.3923C80.2074 50.0935 79.4619 53.5611 79.4619 57.8872V92.0429H64.1543V0.645142H79.4619V31.5099ZM139.537 76.33L139.533 76.3239C136.514 71.1238 135.022 65.2751 135.022 58.8294C135.022 52.3107 136.511 46.4552 139.54 41.3228C142.547 36.2273 146.654 32.2446 151.833 29.402C157.035 26.4681 162.953 25.027 169.532 25.027C176.034 25.027 181.91 26.4691 187.106 29.3986C192.361 32.2382 196.474 36.2215 199.408 41.327C202.44 46.388 203.923 52.2452 203.923 58.8294C203.923 65.3438 202.436 71.1959 199.411 76.3258C196.478 81.4326 192.367 85.4538 187.117 88.3721C181.918 91.3056 176.038 92.7497 169.532 92.7497C162.949 92.7497 157.027 91.3066 151.823 88.3688C146.65 85.4487 142.547 81.4302 139.54 76.3361L139.537 76.33ZM186.139 86.6271C191.087 83.8788 194.934 80.1096 197.683 75.3196C200.509 70.5296 201.923 65.0329 201.923 58.8294C201.923 52.5475 200.509 47.0508 197.683 42.3393C194.934 37.5493 191.087 33.8194 186.139 31.1496C181.271 28.4012 175.735 27.027 169.532 27.027C163.25 27.027 157.674 28.4012 152.806 31.1496C147.937 33.8194 144.09 37.5493 141.263 42.3393C138.436 47.1293 137.022 52.626 137.022 58.8294C137.022 64.9544 138.436 70.4511 141.263 75.3196C144.09 80.1096 147.937 83.8788 152.806 86.6271C157.674 89.3755 163.25 90.7497 169.532 90.7497C175.735 90.7497 181.271 89.3755 186.139 86.6271ZM179.262 76.4074L179.272 76.4022C182.155 74.7846 184.401 72.5096 186.03 69.5379C187.656 66.4941 188.498 62.9428 188.498 58.8294C188.498 54.6238 187.65 51.1281 186.044 48.2648L186.039 48.2559L186.034 48.247C184.405 45.2712 182.158 42.9936 179.272 41.3745L179.262 41.3693L179.253 41.364C176.447 39.7503 173.224 38.9211 169.532 38.9211C165.839 38.9211 162.616 39.7503 159.81 41.364C156.992 42.9843 154.728 45.2735 153.011 48.2786L153.006 48.2877L153.001 48.2967C151.328 51.1537 150.448 54.6376 150.448 58.8294C150.448 62.9294 151.323 66.4695 153.016 69.5074C154.733 72.5079 156.995 74.7941 159.81 76.4127C162.616 78.0264 165.839 78.8556 169.532 78.8556C173.224 78.8556 176.447 78.0264 179.253 76.4127L179.262 76.4074ZM151.275 70.4903C149.39 67.1138 148.448 63.2268 148.448 58.8294C148.448 54.3535 149.39 50.5058 151.275 47.2863C153.159 43.9883 155.672 41.4363 158.813 39.6302C161.954 37.8241 165.527 36.9211 169.532 36.9211C173.536 36.9211 177.109 37.8241 180.25 39.6302C183.47 41.4363 185.982 43.9883 187.789 47.2863C189.595 50.5058 190.498 54.3535 190.498 58.8294C190.498 63.2268 189.595 67.1138 187.789 70.4903C185.982 73.7884 183.47 76.3404 180.25 78.1465C177.109 79.9525 173.536 80.8556 169.532 80.8556C165.527 80.8556 161.954 79.9525 158.813 78.1465C155.672 76.3404 153.159 73.7884 151.275 70.4903ZM224.104 92.0429L199.413 25.6159H214.408L231.175 71.6056L248.613 25.6159H260.926L278.039 71.7641L295.249 25.6159H309.649L284.833 92.0429H271.231L254.566 48.3363L237.702 92.0429H224.104ZM254.578 42.7515L272.609 90.0429H283.445L306.767 27.6159H296.637L278.034 77.5021L259.534 27.6159H249.994L231.139 77.3437L213.009 27.6159H202.29L225.494 90.0429H236.33L254.578 42.7515ZM312.707 92.0429V25.6159H327.544V32.1604C328.908 30.8311 330.47 29.6752 332.226 28.6961C336.678 26.213 342.06 25.027 348.277 25.027H350.277V40.3421L347.948 39.954C347.584 39.8933 347.223 39.8634 346.863 39.8634H345.685C340.063 39.8634 335.83 41.527 332.745 44.6802C329.691 47.8026 328.015 52.4499 328.015 58.9472V92.0429H312.707ZM327.544 35.1116C326.792 36.0271 326.125 37.0168 325.544 38.0806V27.6159H314.707V90.0429H326.015V58.9472C326.015 52.1156 327.782 46.8937 331.315 43.2816C334.849 39.6695 339.639 37.8634 345.685 37.8634H346.863C347.334 37.8634 347.806 37.9027 348.277 37.9812V27.027C347.598 27.027 346.931 27.0417 346.277 27.0712C341.178 27.3008 336.819 28.4247 333.2 30.4428C330.96 31.6919 329.075 33.2482 327.544 35.1116ZM367.286 88.3881L367.275 88.3819C361.943 85.466 357.749 81.446 354.733 76.3361L354.727 76.3256L354.721 76.3149C351.778 71.186 350.333 65.3382 350.333 58.8294C350.333 52.3306 351.734 46.4906 354.591 41.3656L354.597 41.3547L354.603 41.344C357.525 36.251 361.51 32.2618 366.537 29.4118C371.653 26.4777 377.378 25.027 383.664 25.027C390.014 25.027 395.707 26.4321 400.682 29.2989C405.645 32.1589 409.515 36.2019 412.276 41.3822C415.132 46.5143 416.524 52.4699 416.524 59.1828C416.524 59.7249 416.482 60.3194 416.406 60.9574C416.401 61.6232 416.357 62.2655 416.269 62.8815L416.023 64.5986H365.99C366.415 66.3805 367.072 68.0423 367.954 69.5912C369.72 72.478 372.15 74.7349 375.286 76.374C378.415 78.0098 382.054 78.8556 386.256 78.8556C389.717 78.8556 392.785 78.2672 395.491 77.1277L395.5 77.1241L395.508 77.1207C398.288 75.9802 400.713 74.2717 402.795 71.9742L404.321 70.2905L413.152 80.6217L412.038 81.9216C408.994 85.4731 405.195 88.1675 400.679 90.0084C396.242 91.8489 391.306 92.7497 385.902 92.7497C378.947 92.7497 372.723 91.3157 367.286 88.3881ZM363.939 64.5986C363.797 63.9448 363.684 63.2782 363.599 62.5986H414.289C414.367 62.049 414.407 61.46 414.407 60.8318C414.485 60.2036 414.524 59.654 414.524 59.1828C414.524 57.1384 414.39 55.1771 414.121 53.299C414.081 53.0213 414.038 52.7454 413.992 52.4713C413.374 48.7609 412.216 45.3836 410.52 42.3393C407.928 37.4708 404.316 33.7016 399.683 31.0318C395.05 28.3619 389.711 27.027 383.664 27.027C377.696 27.027 372.317 28.4012 367.527 31.1496C362.816 33.8194 359.086 37.5493 356.338 42.3393C353.668 47.1293 352.333 52.626 352.333 58.8294C352.333 65.0329 353.707 70.5296 356.456 75.3196C359.282 80.1096 363.209 83.8788 368.234 86.6271C373.338 89.3755 379.228 90.7497 385.902 90.7497C391.085 90.7497 395.757 89.8859 399.919 88.1584C404.159 86.4308 407.693 83.918 410.52 80.62L404.277 73.3172C403.823 73.8185 403.353 74.2948 402.867 74.7461C400.919 76.5569 398.719 77.9652 396.267 78.971C393.284 80.2274 389.946 80.8556 386.256 80.8556C381.78 80.8556 377.814 79.9525 374.359 78.1465C370.904 76.3404 368.195 73.8276 366.232 70.6081C365.166 68.7431 364.402 66.7399 363.939 64.5986ZM363.577 54.4713H403.705C403.64 53.7908 403.547 53.1241 403.425 52.4713C403.03 50.3626 402.333 48.3987 401.332 46.5796C399.605 43.4386 397.21 41.0044 394.147 39.2768C391.163 37.4708 387.669 36.5677 383.664 36.5677C379.738 36.5677 376.244 37.4708 373.181 39.2768C370.119 41.0044 367.724 43.4779 365.996 46.6974C365.02 48.4717 364.32 50.3964 363.896 52.4713C363.762 53.1232 363.656 53.7898 363.577 54.4713ZM365.941 52.4713C366.334 50.7345 366.939 49.1338 367.749 47.6612L367.754 47.6522L367.759 47.643C369.314 44.7437 371.445 42.5526 374.164 41.0188L374.181 41.0093L374.197 40.9996C376.92 39.3936 380.057 38.5677 383.664 38.5677C387.359 38.5677 390.484 39.3975 393.112 40.9878L393.138 41.0037L393.165 41.0188C395.897 42.5599 398.028 44.7217 399.58 47.5435C400.414 49.0597 401.019 50.6994 401.387 52.4713H365.941ZM435.874 88.3881L435.862 88.3819C430.531 85.466 426.337 81.446 423.321 76.3361L423.315 76.3256L423.309 76.3149C420.366 71.186 418.921 65.3382 418.921 58.8294C418.921 52.3306 420.322 46.4906 423.179 41.3656L423.185 41.3547L423.191 41.344C426.113 36.251 430.097 32.2618 435.125 29.4118C440.241 26.4777 445.966 25.027 452.252 25.027C458.602 25.027 464.295 26.4321 469.27 29.2989C474.233 32.1589 478.103 36.2019 480.864 41.3822C483.72 46.5143 485.112 52.4699 485.112 59.1828C485.112 59.7249 485.07 60.3194 484.994 60.9574C484.989 61.6232 484.945 62.2655 484.857 62.8815L484.611 64.5986H434.577C435.003 66.3805 435.66 68.0423 436.542 69.5912C438.308 72.478 440.738 74.7349 443.873 76.374C447.003 78.0098 450.642 78.8556 454.843 78.8556C458.305 78.8556 461.373 78.2672 464.079 77.1277L464.088 77.1241L464.096 77.1207C466.876 75.9802 469.301 74.2717 471.383 71.9742L472.909 70.2905L481.74 80.6217L480.626 81.9216C477.582 85.4731 473.783 88.1675 469.266 90.0084C464.83 91.8489 459.894 92.7497 454.49 92.7497C447.535 92.7497 441.311 91.3157 435.874 88.3881ZM432.526 64.5986C432.385 63.9448 432.272 63.2782 432.187 62.5986H482.877C482.955 62.049 482.994 61.46 482.994 60.8318C483.073 60.2036 483.112 59.654 483.112 59.1828C483.112 57.1384 482.978 55.1771 482.708 53.299C482.669 53.0213 482.626 52.7454 482.58 52.4713C481.962 48.7609 480.804 45.3836 479.107 42.3393C476.516 37.4708 472.904 33.7016 468.271 31.0318C463.638 28.3619 458.298 27.027 452.252 27.027C446.284 27.027 440.905 28.4012 436.115 31.1496C431.404 33.8194 427.674 37.5493 424.926 42.3393C422.256 47.1293 420.921 52.626 420.921 58.8294C420.921 65.0329 422.295 70.5296 425.043 75.3196C427.87 80.1096 431.796 83.8788 436.822 86.6271C441.926 89.3755 447.815 90.7497 454.49 90.7497C459.673 90.7497 464.345 89.8859 468.507 88.1584C472.747 86.4308 476.281 83.918 479.107 80.62L472.865 73.3172C472.41 73.8185 471.941 74.2948 471.455 74.7461C469.507 76.5569 467.307 77.9652 464.855 78.971C461.871 80.2274 458.534 80.8556 454.843 80.8556C450.367 80.8556 446.402 79.9525 442.947 78.1465C439.492 76.3404 436.783 73.8276 434.82 70.6081C433.754 68.7431 432.989 66.7399 432.526 64.5986ZM432.165 54.4713H472.292C472.228 53.7908 472.135 53.1241 472.013 52.4713C471.618 50.3626 470.921 48.3987 469.92 46.5796C468.193 43.4386 465.798 41.0044 462.735 39.2768C459.751 37.4708 456.257 36.5677 452.252 36.5677C448.326 36.5677 444.831 37.4708 441.769 39.2768C438.707 41.0044 436.312 43.4779 434.584 46.6974C433.608 48.4717 432.908 50.3964 432.483 52.4713C432.35 53.1232 432.244 53.7898 432.165 54.4713ZM434.529 52.4713C434.921 50.7345 435.527 49.1338 436.336 47.6612L436.341 47.6522L436.346 47.643C437.902 44.7437 440.033 42.5526 442.752 41.0188L442.768 41.0093L442.785 40.9996C445.508 39.3936 448.645 38.5677 452.252 38.5677C455.947 38.5677 459.072 39.3975 461.699 40.9878L461.726 41.0037L461.752 41.0188C464.484 42.5599 466.616 44.7217 468.168 47.5435C469.002 49.0597 469.607 50.6994 469.974 52.4713H434.529ZM493.28 92.0429V0.645142H508.588V92.0429H493.28ZM495.28 90.0429H506.588V2.64514H495.28V90.0429Z" fill="white"/>
</svg>
