<svg width="483" height="118" viewBox="0 0 483 118" fill="none" xmlns="http://www.w3.org/2000/svg">
<path fill-rule="evenodd" clip-rule="evenodd" d="M0.0012207 2.37273H15.3617V94.1796H0.0012207V2.37273ZM28.1136 78.3872L28.1041 78.3705C25.1577 73.1511 23.704 67.2843 23.704 60.82C23.704 54.3562 25.1576 48.5231 28.1111 43.3756L28.1162 43.3667C31.1392 38.1604 35.3105 34.1137 40.6007 31.2562C45.8933 28.3184 51.8308 26.8687 58.3653 26.8687C64.8967 26.8687 70.7984 28.3172 76.0176 31.2596C81.304 34.1164 85.4363 38.163 88.3803 43.3711C91.4136 48.5179 92.9082 54.353 92.9082 60.82C92.9082 67.2929 91.4109 73.1662 88.3796 78.3882C85.4339 83.5199 81.3037 87.5606 76.0283 90.4927C70.8065 93.4391 64.9012 94.8896 58.3653 94.8896C51.8264 94.8896 45.8853 93.4379 40.59 90.4961C35.3145 87.5652 31.1476 83.5282 28.1234 78.4038L28.1136 78.3872ZM86.6481 77.3873C89.4882 72.496 90.9082 66.9736 90.9082 60.82C90.9082 54.6664 89.4882 49.1834 86.6481 44.371C83.8868 39.4797 80.0211 35.6929 75.0509 33.0105C70.1596 30.2493 64.5977 28.8687 58.3653 28.8687C52.1328 28.8687 46.5315 30.2493 41.5613 33.0105C36.5911 35.6929 32.6859 39.4797 29.8458 44.371C27.0846 49.1834 25.704 54.6664 25.704 60.82C25.704 66.9736 27.0846 72.496 29.8458 77.3873C32.6859 82.1997 36.5911 85.9865 41.5613 88.7478C46.5315 91.509 52.1328 92.8896 58.3653 92.8896C64.5977 92.8896 70.1596 91.509 75.0509 88.7478C80.0211 85.9865 83.8868 82.1997 86.6481 77.3873ZM74.9487 50.2932L74.9441 50.2845C73.3024 47.2153 71.0445 44.8958 68.1555 43.2752L68.1463 43.27L68.1371 43.2647C65.3159 41.6425 62.0767 40.8091 58.3653 40.8091C54.6585 40.8091 51.3742 41.6406 48.4659 43.27C45.6518 44.8903 43.3818 47.2175 41.6549 50.3088C40.0267 53.285 39.1828 56.7695 39.1828 60.82C39.1828 64.8617 40.0232 68.3881 41.6549 71.4492C43.3781 74.456 45.6507 76.7928 48.4821 78.4974C51.3865 80.1208 54.6654 80.9492 58.3653 80.9492C62.0736 80.9492 65.3105 80.1172 68.13 78.4977C71.0434 76.7908 73.3083 74.4571 74.9487 71.4652C76.586 68.4004 77.4294 64.8688 77.4294 60.82C77.4294 56.7663 76.5841 53.2795 74.9535 50.3018L74.9487 50.2932ZM76.7077 72.4171C74.8931 75.7306 72.3686 78.334 69.134 80.2274C65.9783 82.0419 62.3888 82.9492 58.3653 82.9492C54.3418 82.9492 50.7127 82.0419 47.4782 80.2274C44.3225 78.334 41.7979 75.7306 39.9045 72.4171C38.09 69.0247 37.1828 65.159 37.1828 60.82C37.1828 56.4809 38.09 52.6546 39.9045 49.3412C41.7979 45.9488 44.3225 43.3454 47.4782 41.5309C50.7127 39.7164 54.3418 38.8091 58.3653 38.8091C62.3888 38.8091 65.9783 39.7164 69.134 41.5309C72.3686 43.3454 74.8931 45.9488 76.7077 49.3412C78.5222 52.6546 79.4294 56.4809 79.4294 60.82C79.4294 65.159 78.5222 69.0247 76.7077 72.4171ZM165.067 27.4604V83.6592C165.067 94.9173 162.274 103.631 156.289 109.359C150.339 115.133 141.627 117.847 130.524 117.847C124.422 117.847 118.586 116.993 113.024 115.277C107.447 113.635 102.825 111.223 99.2424 107.982L98.0039 106.861L105.565 94.6972L107.336 96.2287C110.027 98.5564 113.377 100.41 117.429 101.761L117.439 101.764L117.45 101.768C121.579 103.195 125.816 103.907 130.169 103.907C137.235 103.907 142.021 102.231 144.967 99.2857L144.975 99.2777L144.983 99.2699C148.008 96.3118 149.706 91.6385 149.706 84.8426V84.712C147.579 86.4932 145.188 87.9411 142.54 89.0533L142.531 89.0572L142.522 89.0611C138.394 90.7458 133.914 91.5761 129.104 91.5761C122.818 91.5761 117.055 90.2502 111.856 87.5665L111.838 87.5576L111.821 87.5484C106.703 84.7794 102.65 80.9426 99.7002 76.0539L99.6963 76.0474L99.6925 76.0409C96.7312 71.049 95.2707 65.4047 95.2707 59.1632C95.2707 52.9251 96.7298 47.3163 99.6962 42.3977C102.647 37.426 106.707 33.5792 111.844 30.8844L111.856 30.8782C117.055 28.1946 122.818 26.8687 129.104 26.8687C134.085 26.8687 138.733 27.7828 143.024 29.6327C145.747 30.7851 148.174 32.2842 150.298 34.1292V27.4604H165.067ZM152.298 39.1641C151.674 38.3515 151.008 37.5864 150.298 36.8688C148.045 34.5909 145.359 32.792 142.239 31.4721C138.216 29.7365 133.837 28.8687 129.104 28.8687C123.108 28.8687 117.664 30.131 112.773 32.6555C107.961 35.1801 104.174 38.7696 101.413 43.4243C98.6514 48 97.2707 53.2463 97.2707 59.1632C97.2707 65.0801 98.6514 70.3659 101.413 75.0205C104.174 79.5963 107.961 83.1859 112.773 85.7893C117.664 88.3139 123.108 89.5761 129.104 89.5761C133.679 89.5761 137.9 88.7872 141.766 87.2094C144.782 85.9428 147.428 84.2151 149.706 82.0263C150.408 81.3521 151.075 80.6341 151.706 79.8724V84.8426C151.706 91.9429 149.931 97.2286 146.381 100.7C142.91 104.171 137.506 105.907 130.169 105.907C125.593 105.907 121.136 105.157 116.797 103.658C113.272 102.484 110.207 100.931 107.6 99.0001C107.056 98.597 106.532 98.1775 106.028 97.7414L100.584 106.498C103.898 109.496 108.237 111.784 113.601 113.362C118.966 115.019 124.607 115.847 130.524 115.847C141.332 115.847 149.458 113.204 154.901 107.919C160.345 102.712 163.067 94.6252 163.067 83.6592V29.4604H152.298V39.1641ZM140.474 75.2653L140.483 75.2606C143.482 73.6894 145.764 71.538 147.38 68.7977L147.384 68.7912L147.388 68.7847C149.081 65.9622 149.943 62.7724 149.943 59.1632C149.943 53.5789 148.117 49.2453 144.552 45.96L144.545 45.9529L144.537 45.9457C140.938 42.5581 136.285 40.8091 130.405 40.8091C124.439 40.8091 119.75 42.5626 116.156 45.9457L116.148 45.9529L116.14 45.96C112.575 49.2453 110.75 53.5789 110.75 59.1632C110.75 62.7772 111.574 65.9701 113.19 68.7911C114.892 71.547 117.185 73.6991 120.1 75.2653C123.093 76.8309 126.513 77.6357 130.405 77.6357C134.217 77.6357 137.554 76.8319 140.465 75.27L140.474 75.2653ZM119.163 77.0323C115.929 75.2967 113.365 72.8905 111.471 69.8137C109.657 66.658 108.75 63.1078 108.75 59.1632C108.75 53.0886 110.761 48.1972 114.785 44.4893C118.808 40.7025 124.015 38.8091 130.405 38.8091C136.717 38.8091 141.884 40.7025 145.908 44.4893C149.931 48.1972 151.943 53.0886 151.943 59.1632C151.943 63.1078 150.996 66.658 149.103 69.8137C147.288 72.8905 144.724 75.2967 141.411 77.0323C138.176 78.7679 134.508 79.6357 130.405 79.6357C126.224 79.6357 122.477 78.7679 119.163 77.0323ZM177.834 78.3872L177.825 78.3705C174.878 73.1511 173.425 67.2843 173.425 60.82C173.425 54.3562 174.878 48.5231 177.832 43.3756L177.837 43.3667C180.86 38.1604 185.031 34.1138 190.321 31.2563C195.614 28.3185 201.552 26.8687 208.086 26.8687C214.617 26.8687 220.519 28.3172 225.738 31.2596C231.025 34.1165 235.157 38.1632 238.101 43.3714C241.134 48.5182 242.629 54.3531 242.629 60.82C242.629 67.2924 241.132 73.1653 238.101 78.387C235.155 83.5193 231.025 87.5604 225.749 90.4927C220.527 93.4391 214.622 94.8896 208.086 94.8896C201.547 94.8896 195.606 93.4379 190.311 90.4961C185.035 87.5652 180.868 83.5282 177.844 78.4038L177.834 78.3872ZM236.369 77.3873C239.209 72.496 240.629 66.9736 240.629 60.82C240.629 54.6664 239.209 49.1834 236.369 44.371C233.608 39.4797 229.742 35.6929 224.772 33.0105C219.88 30.2493 214.318 28.8687 208.086 28.8687C201.854 28.8687 196.252 30.2493 191.282 33.0105C186.312 35.6929 182.407 39.4797 179.567 44.371C176.805 49.1834 175.425 54.6664 175.425 60.82C175.425 66.9736 176.805 72.496 179.567 77.3873C182.407 82.1997 186.312 85.9865 191.282 88.7478C196.252 91.509 201.854 92.8896 208.086 92.8896C214.318 92.8896 219.88 91.509 224.772 88.7478C229.742 85.9865 233.608 82.1997 236.369 77.3873ZM224.669 50.2932L224.665 50.2845C223.023 47.2153 220.765 44.8958 217.876 43.2752L217.867 43.27L217.858 43.2647C215.037 41.6425 211.797 40.8091 208.086 40.8091C204.379 40.8091 201.095 41.6405 198.187 43.2698C195.373 44.8902 193.103 47.2174 191.376 50.3088C189.747 53.285 188.903 56.7695 188.903 60.82C188.903 64.8617 189.744 68.3881 191.376 71.4492C193.099 74.456 195.371 76.7928 198.203 78.4974C201.107 80.1208 204.386 80.9492 208.086 80.9492C211.794 80.9492 215.031 80.1171 217.851 78.4974C220.764 76.7907 223.029 74.4573 224.669 71.4657C226.307 68.4008 227.15 64.869 227.15 60.82C227.15 56.7663 226.305 53.2795 224.674 50.3018L224.669 50.2932ZM226.428 72.4171C224.614 75.7306 222.089 78.334 218.855 80.2274C215.699 82.0419 212.109 82.9492 208.086 82.9492C204.062 82.9492 200.433 82.0419 197.199 80.2274C194.043 78.334 191.519 75.7306 189.625 72.4171C187.811 69.0247 186.903 65.159 186.903 60.82C186.903 56.4809 187.811 52.6546 189.625 49.3412C191.519 45.9488 194.043 43.3454 197.199 41.5309C200.433 39.7164 204.062 38.8091 208.086 38.8091C212.109 38.8091 215.699 39.7164 218.855 41.5309C222.089 43.3454 224.614 45.9488 226.428 49.3412C228.243 52.6546 229.15 56.4809 229.15 60.82C229.15 65.159 228.243 69.0247 226.428 72.4171ZM282.8 14.8446C280.644 13.6225 278.294 13.0114 275.748 13.0114C268.963 13.0114 265.571 16.6799 265.571 24.0168V29.4604H283.795V38.8091H265.807V92.1796H254.447V38.8091H243.796V29.4604H254.447V23.8985C254.447 17.666 256.261 12.7353 259.89 9.10625C263.519 5.47721 268.608 3.6627 275.156 3.6627C277.68 3.6627 280.047 3.97827 282.256 4.60941C284.465 5.24054 286.359 6.1478 287.936 7.33118L284.505 15.9699C283.951 15.5501 283.382 15.175 282.8 14.8446ZM252.447 27.4604H241.796V40.8091H252.447V94.1796H267.807V40.8091H285.795V27.4604H267.571V24.0168C267.571 20.6195 268.359 18.4443 269.583 17.1206C270.78 15.8266 272.705 15.0114 275.748 15.0114C278.542 15.0114 281.037 15.8523 283.297 17.564L285.393 19.1517L290.36 6.64859L289.136 5.73118C287.334 4.37931 285.211 3.37369 282.806 2.68636C280.401 1.9994 277.848 1.6627 275.156 1.6627C268.231 1.6627 262.576 3.59178 258.476 7.69204C254.394 11.774 252.447 17.2569 252.447 23.8985V27.4604ZM286.645 78.3872L286.636 78.3705C283.689 73.1511 282.236 67.2843 282.236 60.82C282.236 54.3562 283.689 48.5231 286.643 43.3756L286.648 43.3667C289.671 38.1604 293.842 34.1138 299.132 31.2563C304.425 28.3185 310.362 26.8687 316.897 26.8687C323.428 26.8687 329.33 28.3172 334.549 31.2596C339.836 34.1163 343.968 38.1628 346.912 43.3708C349.945 48.5177 351.44 54.3529 351.44 60.82C351.44 67.2924 349.943 73.1653 346.912 78.387C343.966 83.5193 339.836 87.5604 334.56 90.4927C329.338 93.4391 323.433 94.8896 316.897 94.8896C310.358 94.8896 304.417 93.4379 299.122 90.4961C293.846 87.5652 289.679 83.5282 286.655 78.4038L286.645 78.3872ZM333.583 88.7478C338.553 85.9865 342.418 82.1997 345.18 77.3873C348.02 72.496 349.44 66.9736 349.44 60.82C349.44 54.6664 348.02 49.1834 345.18 44.371C342.418 39.4797 338.553 35.6929 333.583 33.0105C328.691 30.2493 323.129 28.8687 316.897 28.8687C310.664 28.8687 305.063 30.2493 300.093 33.0105C295.123 35.6929 291.218 39.4797 288.377 44.371C285.616 49.1834 284.236 54.6664 284.236 60.82C284.236 66.9736 285.616 72.496 288.377 77.3873C291.218 82.1997 295.123 85.9865 300.093 88.7478C305.063 91.509 310.664 92.8896 316.897 92.8896C323.129 92.8896 328.691 91.509 333.583 88.7478ZM333.48 50.2932L333.476 50.2845C331.834 47.2153 329.576 44.8958 326.687 43.2752L326.678 43.27L326.669 43.2647C323.848 41.6425 320.608 40.8091 316.897 40.8091C313.19 40.8091 309.906 41.6406 306.997 43.2701C304.184 44.8902 301.914 47.2169 300.187 50.3075C298.559 53.284 297.714 56.7689 297.714 60.82C297.714 64.8615 298.555 68.3878 300.186 71.4487C301.909 74.4556 304.182 76.7926 307.013 78.4972C309.918 80.1207 313.197 80.9492 316.897 80.9492C320.605 80.9492 323.842 80.1173 326.661 78.4979C329.575 76.7909 331.84 74.457 333.481 71.4646C335.118 68.4 335.961 64.8686 335.961 60.82C335.961 56.7663 335.116 53.2795 333.485 50.3018L333.48 50.2932ZM335.239 72.4171C333.425 75.7306 330.9 78.334 327.666 80.2274C324.51 82.0419 320.92 82.9492 316.897 82.9492C312.873 82.9492 309.244 82.0419 306.01 80.2274C302.854 78.334 300.33 75.7306 298.436 72.4171C296.622 69.0247 295.714 65.159 295.714 60.82C295.714 56.4809 296.622 52.6546 298.436 49.3412C300.33 45.9488 302.854 43.3454 306.01 41.5309C309.244 39.7164 312.873 38.8091 316.897 38.8091C320.92 38.8091 324.51 39.7164 327.666 41.5309C330.9 43.3454 333.425 45.9488 335.239 49.3412C337.054 52.6546 337.961 56.4809 337.961 60.82C337.961 65.159 337.054 69.0247 335.239 72.4171ZM359.601 2.37273H374.961V94.1796H359.601V2.37273ZM389.102 27.4604H404.463V94.1796H389.102V27.4604ZM389.826 16.6931L389.806 16.674C388.002 14.87 387.091 12.6219 387.091 10.053C387.091 7.48404 388.002 5.23589 389.806 3.43186C391.698 1.54062 394.068 0.597656 396.782 0.597656C399.445 0.597656 401.772 1.46659 403.601 3.2744C405.506 4.99841 406.474 7.22754 406.474 9.81627C406.474 12.4739 405.516 14.798 403.64 16.674C401.806 18.5084 399.464 19.3899 396.782 19.3899C394.101 19.3899 391.743 18.5098 389.845 16.7117L389.826 16.6931ZM402.226 4.72774C400.806 3.30768 398.991 2.59766 396.782 2.59766C394.574 2.59766 392.72 3.34713 391.221 4.84608C389.801 6.26613 389.091 8.00176 389.091 10.053C389.091 12.1041 389.801 13.8398 391.221 15.2598C392.72 16.6799 394.574 17.3899 396.782 17.3899C398.991 17.3899 400.806 16.6799 402.226 15.2598C403.725 13.7609 404.474 11.9464 404.474 9.81627C404.474 7.76508 403.725 6.0689 402.226 4.72774ZM417.215 78.3872L417.205 78.3705C414.259 73.1511 412.805 67.2843 412.805 60.82C412.805 54.3562 414.259 48.5231 417.212 43.3756L417.217 43.3667C420.24 38.1604 424.411 34.1138 429.702 31.2563C434.994 28.3185 440.932 26.8687 447.466 26.8687C453.998 26.8687 459.899 28.3172 465.119 31.2596C470.405 34.1163 474.537 38.1628 477.481 43.3708C480.515 48.5177 482.009 54.3529 482.009 60.82C482.009 67.2924 480.512 73.1653 477.481 78.387C474.535 83.5193 470.405 87.5604 465.129 90.4927C459.908 93.4391 454.002 94.8896 447.466 94.8896C440.927 94.8896 434.986 93.4379 429.691 90.4961C424.415 87.5652 420.249 83.5282 417.224 78.4038L417.215 78.3872ZM464.152 88.7478C469.122 85.9865 472.988 82.1997 475.749 77.3873C478.589 72.496 480.009 66.9736 480.009 60.82C480.009 54.6664 478.589 49.1834 475.749 44.371C472.988 39.4797 469.122 35.6929 464.152 33.0105C459.261 30.2493 453.699 28.8687 447.466 28.8687C441.234 28.8687 435.632 30.2493 430.662 33.0105C425.692 35.6929 421.787 39.4797 418.947 44.371C416.186 49.1834 414.805 54.6664 414.805 60.82C414.805 66.9736 416.186 72.496 418.947 77.3873C421.787 82.1997 425.692 85.9865 430.662 88.7478C435.632 91.509 441.234 92.8896 447.466 92.8896C453.699 92.8896 459.261 91.509 464.152 88.7478ZM464.05 50.2932L464.045 50.2845C462.403 47.2153 460.146 44.8958 457.257 43.2752L457.247 43.27L457.238 43.2647C454.417 41.6425 451.178 40.8091 447.466 40.8091C443.759 40.8091 440.475 41.6406 437.567 43.2701C434.753 44.8902 432.483 47.2169 430.757 50.3075C429.128 53.284 428.284 56.7689 428.284 60.82C428.284 64.8615 429.124 68.3878 430.756 71.4487C432.479 74.4556 434.751 76.7926 437.583 78.4972C440.487 80.1207 443.766 80.9492 447.466 80.9492C451.174 80.9492 454.411 80.1173 457.231 78.4979C460.144 76.7909 462.41 74.457 464.05 71.4646C465.687 68.4 466.53 64.8686 466.53 60.82C466.53 56.7663 465.685 53.2795 464.054 50.3018L464.05 50.2932ZM465.809 72.4171C463.994 75.7306 461.47 78.334 458.235 80.2274C455.079 82.0419 451.49 82.9492 447.466 82.9492C443.443 82.9492 439.814 82.0419 436.579 80.2274C433.423 78.334 430.899 75.7306 429.006 72.4171C427.191 69.0247 426.284 65.159 426.284 60.82C426.284 56.4809 427.191 52.6546 429.006 49.3412C430.899 45.9488 433.423 43.3454 436.579 41.5309C439.814 39.7164 443.443 38.8091 447.466 38.8091C451.49 38.8091 455.079 39.7164 458.235 41.5309C461.47 43.3454 463.994 45.9488 465.809 49.3412C467.623 52.6546 468.53 56.4809 468.53 60.82C468.53 65.159 467.623 69.0247 465.809 72.4171ZM2.00122 4.37272V92.1796H13.3617V4.37272H2.00122ZM361.601 4.37272V92.1796H372.961V4.37272H361.601ZM391.102 29.4604V92.1796H402.463V29.4604H391.102Z" fill="white"/>
</svg>
