<svg xmlns="http://www.w3.org/2000/svg" width="31" height="30" fill="none"><path fill="#324591" d="M27.057 5.664c1.226 0 2.22-.996 2.22-2.225a2.223 2.223 0 0 0-2.22-2.225c-1.226 0-2.22.996-2.22 2.225s.994 2.225 2.22 2.225ZM19.232 4.885c.797 0 1.442-.647 1.442-1.446 0-.798-.645-1.446-1.442-1.446-.797 0-1.442.648-1.442 1.446 0 .799.645 1.446 1.442 1.446ZM28.848 11.35c.796 0 1.442-.648 1.442-1.446 0-.8-.646-1.446-1.442-1.446-.797 0-1.443.647-1.443 1.446 0 .798.646 1.446 1.443 1.446Z"/><path fill="#324591" d="M28.827 14.095a.794.794 0 0 0-.757-.738l-.305-.024a5.682 5.682 0 0 1-3.814-2.097 5.711 5.711 0 0 1-1.219-4.186v-.017a.79.79 0 0 0-1.06-.837 5.664 5.664 0 0 1-5.062-.547 5.685 5.685 0 0 1-2.59-4.395.786.786 0 0 0-.843-.73 14.403 14.403 0 0 0-7.651 3.025 14.46 14.46 0 0 0-4.758 6.726 14.496 14.496 0 0 0-.318 8.24 14.467 14.467 0 0 0 4.227 7.074 14.391 14.391 0 0 0 15.556 2.577 14.434 14.434 0 0 0 6.271-5.335 14.487 14.487 0 0 0 2.343-7.904c.003-.277-.005-.554-.02-.832ZM9.947 6.178a2.216 2.216 0 0 1 2.05 1.375 2.23 2.23 0 0 1-.482 2.425 2.219 2.219 0 0 1-3.788-1.577c0-.59.235-1.155.651-1.572.417-.417.98-.65 1.569-.65Zm-4.388 9.773a2.23 2.23 0 0 1 1.371-2.056 2.215 2.215 0 0 1 2.42.484 2.227 2.227 0 0 1-1.574 3.798 2.214 2.214 0 0 1-1.561-.656 2.225 2.225 0 0 1-.644-1.57h-.012Zm5.666 8.24a2.215 2.215 0 0 1-2.053-1.37 2.23 2.23 0 0 1 .48-2.427 2.218 2.218 0 0 1 3.79 1.573c0 .587-.232 1.151-.645 1.568a2.217 2.217 0 0 1-1.56.657h-.012Zm4.03-10.416a2.23 2.23 0 0 1 1.37-2.056 2.214 2.214 0 0 1 2.42.482 2.226 2.226 0 0 1-1.57 3.8 2.217 2.217 0 0 1-1.56-.657 2.228 2.228 0 0 1-.645-1.569h-.014Zm5.54 9.649a2.216 2.216 0 0 1-2.05-1.374 2.231 2.231 0 0 1 .48-2.425 2.217 2.217 0 0 1 3.79 1.574c0 .587-.232 1.151-.646 1.568a2.217 2.217 0 0 1-1.56.657h-.014Z"/></svg>